<?xml version="1.0" standalone="no"?>
<!DOCTYPE svg PUBLIC "-//W3C//DTD SVG 20010904//EN"
 "http://www.w3.org/TR/2001/REC-SVG-20010904/DTD/svg10.dtd">
<svg version="1.0" xmlns="http://www.w3.org/2000/svg"
 width="45pt" height="45pt" viewBox="0 0 200.000000 200.000000"
 preserveAspectRatio="xMidYMid meet">
<g transform="translate(0.000000,200.000000) scale(0.100000,-0.100000)"
fill="#000000" stroke="none">
<path d="M980 1387 l0 -564 23 2 22 2 3 561 2 562 -25 0 -25 0 0 -563z"/>
<path d="M834 1785 c-177 -38 -362 -162 -463 -309 -44 -64 -97 -179 -118 -256
-24 -89 -24 -290 0 -380 39 -146 178 -368 212 -340 8 7 16 7 19 2 17 -29 -133
-31 -187 -3 -41 21 -43 17 -27 -41 14 -48 66 -93 132 -113 30 -10 106 -19 173
-22 87 -4 139 -12 190 -29 155 -51 330 -51 480 1 56 20 96 25 195 28 146 5
214 23 263 70 31 29 68 110 55 122 -2 3 -22 -4 -43 -15 -55 -28 -195 -26 -195
2 0 6 11 8 23 4 27 -6 53 17 106 97 88 130 125 256 125 427 0 176 -37 297
-132 436 -41 61 -137 161 -188 195 -67 46 -190 101 -267 119 -102 25 -97 25
-97 -5 0 -19 6 -26 28 -30 90 -19 126 -32 209 -72 228 -110 377 -333 399 -595
16 -182 -59 -394 -191 -542 l-34 -38 -35 21 c-41 25 -66 63 -96 143 -24 66
-68 109 -148 146 -72 33 -164 29 -195 -9 -13 -16 -21 -20 -24 -11 -8 21 -60
42 -106 42 -112 0 -231 -86 -256 -185 -10 -38 -24 -61 -62 -97 -27 -27 -55
-48 -62 -48 -19 0 -108 113 -150 190 -62 114 -82 197 -82 340 0 143 20 226 82
340 99 183 280 321 477 365 69 15 76 19 76 41 0 27 -2 27 -86 9z m137 -1010
c40 -15 47 -14 81 1 27 12 52 15 87 11 98 -12 167 -66 202 -161 16 -40 38 -76
69 -106 38 -39 57 -49 125 -67 45 -12 94 -19 113 -16 25 4 31 2 27 -9 -17 -43
-164 -74 -307 -64 -85 5 -108 11 -166 40 -37 19 -92 57 -122 85 -30 28 -62 51
-70 51 -8 0 -40 -22 -70 -50 -30 -27 -86 -66 -125 -87 -65 -34 -77 -37 -175
-41 -71 -3 -129 1 -179 12 -111 24 -165 67 -78 64 57 -3 153 26 202 60 30 20
50 48 81 110 44 89 73 126 119 149 68 36 121 41 186 18z m49 -261 c0 -8 24
-39 53 -68 48 -48 76 -63 202 -112 17 -7 16 -8 -10 -12 -16 -2 -31 0 -32 5 -2
6 -30 4 -66 -4 -74 -16 -244 -18 -309 -4 -26 6 -67 8 -92 5 -25 -4 -46 -4 -46
-1 0 3 28 15 63 26 86 29 156 77 192 133 31 49 45 59 45 32z"/>
<path d="M980 451 c0 -16 6 -21 26 -21 33 0 30 33 -4 38 -17 3 -22 -2 -22 -17z"/>
</g>
</svg>
